<svg xmlns="http://www.w3.org/2000/svg" width="64" height="64" viewBox="0 0 64 64"><defs><style>.a{fill:#5e5e5e;}</style></defs><path class="a" d="M32,0A32,32,0,1,0,64,32,32,32,0,0,0,32,0Zm0,61.091A29.091,29.091,0,1,1,61.091,32,29.091,29.091,0,0,1,32,61.091Z"/><path class="a" d="M163.616,139.636H145.632a6,6,0,0,0-5.995,5.995v17.985a6,6,0,0,0,5.995,5.995h17.985a6,6,0,0,0,5.995-5.995V145.631A6,6,0,0,0,163.616,139.636Zm-3,4.5h4.5v4.5h-4.5Zm-5.995,4.5a5.995,5.995,0,1,1-5.995,5.995A5.995,5.995,0,0,1,154.624,148.628Zm11.99,14.987a3,3,0,0,1-3,3H145.632a3,3,0,0,1-3-3V153.124h3.147a8.992,8.992,0,1,0,17.835,1.5,8.881,8.881,0,0,0-.15-1.5h3.147v10.491Z" transform="translate(-122.624 -122.623)"/></svg>