<svg xmlns="http://www.w3.org/2000/svg" width="64" height="64" viewBox="0 0 64 64"><defs><style>.a{fill:#5e5e5e;}</style></defs><ellipse class="a" cx="2.997" cy="2.997" rx="2.997" ry="2.997" transform="translate(20.302 20.302)"/><rect class="a" width="5.995" height="16.486" transform="translate(20.302 27.357)"/><path class="a" d="M32,0A32,32,0,1,0,64,32,32,32,0,0,0,32,0Zm0,61.091A29.091,29.091,0,1,1,61.091,32,29.091,29.091,0,0,1,32,61.091Z"/><path class="a" d="M243.758,221.091c-4.5,0-5.036,2.668-5.036,2.668v-2.668h-5.995v16.486h5.995v-8.992s0-3,2.548-3c1.5,0,1.948,1.334,1.948,3v8.992h5.995v-8.992C249.214,223.894,247.176,221.091,243.758,221.091Z" transform="translate(-203.932 -193.734)"/></svg>