<svg xmlns="http://www.w3.org/2000/svg" width="64" height="64" viewBox="0 0 64 64"><defs><style>.a{fill:#5e5e5e;}</style></defs><path class="a" d="M174.435,151.256l-1.918.24a13.651,13.651,0,0,0-3.477,1.154,12.245,12.245,0,0,0-5.59,6.1,11.528,11.528,0,0,0-.345,1.5,7.494,7.494,0,0,0,2.728,8.033c.375.225,1.244.645,1.5.09a5.006,5.006,0,0,0,.24-1.049,2.443,2.443,0,0,0,.24-.959c-.09-.495-.614-.794-.839-1.2a8.169,8.169,0,0,1-.689-2.578v-.435a8.093,8.093,0,0,1,6.28-7.643,9.141,9.141,0,0,1,3.447-.255l1.664.285a6.46,6.46,0,0,1,4.271,3.627,9.142,9.142,0,0,1,.3,4.781c-.165.689-.135,1.289-.345,1.918-.764,2.323-1.888,4.5-4.421,5.066a2.833,2.833,0,0,1-3.342-1.679,2.263,2.263,0,0,1-.195-1.289c.435-1.888,1.079-3.567,1.5-5.455a2.7,2.7,0,0,0-1.594-3.466q-.108-.04-.22-.071c-1.738-.42-3.072,1.2-3.537,2.248a6.189,6.189,0,0,0-.3,3.492,6.14,6.14,0,0,1,.54,1.6c-.33,1.5-.719,3-1.124,4.5s-.659,3-1.079,4.5c-.195.659-.18,1.364-.345,2.053v1a6.891,6.891,0,0,0,.1,2.383,6.7,6.7,0,0,0,.15,1.2.614.614,0,0,0,.1.375c.615,0,1.5-1.634,1.769-2.1a18.8,18.8,0,0,0,1.5-2.923c.4-.944.465-1.993.779-3a12.192,12.192,0,0,0,.674-2.563,2.187,2.187,0,0,0,.929,1,6.265,6.265,0,0,0,4.961,1,8.992,8.992,0,0,0,5.305-3.207,14.06,14.06,0,0,0,2.068-4.062c.255-.749.3-1.589.495-2.383a10.056,10.056,0,0,0-.734-5.74C184.162,153.444,180.415,151.166,174.435,151.256Z" transform="translate(-142.823 -132.828)"/><path class="a" d="M32,0A32,32,0,1,0,64,32,32,32,0,0,0,32,0Zm0,61.091A29.091,29.091,0,1,1,61.091,32,29.091,29.091,0,0,1,32,61.091Z"/></svg>