<svg xmlns="http://www.w3.org/2000/svg" width="64" height="64" viewBox="0 0 64 64"><defs><style>.a{fill:#5e5e5e;}</style></defs><path class="a" d="M180.424,163.56a12.452,12.452,0,0,1-3.912,1.5,6.19,6.19,0,0,0-4.5-1.918,6.1,6.1,0,0,0-6.145,5.995,6,6,0,0,0,.165,1.379,17.55,17.55,0,0,1-12.679-6.325,5.919,5.919,0,0,0,1.9,8.033,6.2,6.2,0,0,1-2.788-.764v.075a6.085,6.085,0,0,0,4.931,5.995,6.282,6.282,0,0,1-2.773.1,6.145,6.145,0,0,0,5.74,4.2,12.455,12.455,0,0,1-7.6,2.623,12.754,12.754,0,0,1-1.5-.09,17.61,17.61,0,0,0,9.427,2.728,17.235,17.235,0,0,0,17.547-16.918q0-.151,0-.3v-.779a12.454,12.454,0,0,0,3-3.132,12.437,12.437,0,0,1-3.537.959A6.1,6.1,0,0,0,180.424,163.56Z" transform="translate(-132.843 -143.1)"/><path class="a" d="M32,0A32,32,0,1,0,64,32,32,32,0,0,0,32,0Zm0,61.091A29.091,29.091,0,1,1,61.091,32,29.091,29.091,0,0,1,32,61.091Z"/></svg>